<svg xmlns="http://www.w3.org/2000/svg" width="200" height="200" fill="none"><g clip-path="url(#a)"><circle cx="100" cy="100" r="100" fill="#000"/><path fill="#fff" d="M102.3 100q0 12.3-4.6 20.9T85.1 134t-17.8 4.5-18-4.5q-7.8-4.5-12.5-13.1-4.5-8.7-4.6-20.9t4.6-20.8a32 32 0 0 1 12.5-13.1q8-4.5 18-4.5T85 66a32 32 0 0 1 12.6 13.1 43 43 0 0 1 4.6 20.8m-16 0q0-7.9-2.4-13.3a18 18 0 0 0-6.6-8.3 18 18 0 0 0-10-2.8q-5.8 0-10 2.8t-6.7 8.3a34 34 0 0 0-2.3 13.3q0 8 2.3 13.4 2.4 5.5 6.6 8.3 4.3 2.8 10 2.8t10-2.8q4.5-2.8 6.7-8.3 2.4-5.3 2.4-13.4m21.5-24.4v-13h61.5v13h-22.9v61.9h-15.7V75.6z"/></g><defs><clipPath id="a"><path fill="#fff" d="M0 0h200v200H0z"/></clipPath></defs></svg>